<?xml version="1.0" encoding="UTF-8"?>
<svg width="106px" height="19px" viewBox="0 0 106 19" version="1.1" xmlns="http://www.w3.org/2000/svg" xmlns:xlink="http://www.w3.org/1999/xlink">
    <!-- Generator: Sketch 52.4 (67378) - http://www.bohemiancoding.com/sketch -->
    <title>Car Flo 2</title>
    <desc>Created with Sketch.</desc>
    <g id="Emails" stroke="none" stroke-width="1" fill="none" fill-rule="evenodd">
        <g id="email-rejected" transform="translate(-381.000000, -106.000000)" fill="#F03E3E">
            <g id="Car-Flo-2" transform="translate(381.000000, 106.000000)">
                <path d="M20.4944532,11.1320513 C20.2304732,12.7641026 19.7265112,14.1525641 18.8865746,15.3217949 C17.2546978,17.6602564 14.3989133,19 10.0312429,19 C8.01539506,19 6.26352728,18.6833333 4.75164139,18.074359 C1.72786959,16.8320513 0,14.25 0,10.0115385 L0,9.88974359 C0,7.94102564 0.431967399,6.28461538 1.34389857,4.92051282 C3.14376273,2.16794872 6.35952004,0.706410256 10.4392121,0.706410256 C12.2150781,0.706410256 13.726964,0.974358974 15.118859,1.48589744 C17.926647,2.55769231 19.7505094,4.67692308 20.3984605,8.01410256 L16.0547883,8.01410256 C15.6468191,5.7 13.7989586,4.38461538 10.4632103,4.38461538 C6.50350917,4.38461538 4.15168667,5.94358974 4.15168667,9.91410256 L4.15168667,9.96282051 C4.15168667,13.6897436 6.38351823,15.2974359 10.295223,15.2974359 C14.110935,15.2974359 15.7188137,13.8115385 16.1027847,11.1320513 L20.4944532,11.1320513 Z M35.4213267,15.2 C34.2934118,17.4166667 31.7496038,18.975641 27.7659045,18.975641 C23.9741906,18.975641 21.8863482,17.6846154 21.8863482,15.0051282 L21.8863482,14.9807692 C21.8863482,13.3487179 22.5582975,12.1307692 24.0701834,11.424359 C24.526149,11.2051282 25.0301109,11.0346154 25.5820693,10.8641026 C26.7099842,10.5717949 28.341861,10.3769231 31.2936382,10.2064103 C32.3255603,10.1333333 33.1175006,10.0846154 33.6694589,9.98717949 C34.7973738,9.81666667 35.1813448,9.5 35.1813448,8.89102564 L35.1813448,8.86666667 C35.1813448,8.55 35.085352,8.25769231 34.821372,7.96538462 C34.3654064,7.40512821 33.2854879,7.01538462 31.2936382,7.01538462 C30.0937288,7.01538462 29.1817976,7.08846154 28.5098483,7.28333333 C27.1179534,7.6 26.5419968,8.28205128 26.4220059,9.4025641 L22.2223228,9.4025641 C22.6782884,5.67564103 25.6300657,4.04358974 30.9336654,4.04358974 C32.7335295,4.04358974 34.1974191,4.21410256 35.4213267,4.53076923 C37.8451438,5.21282051 39.0930496,6.77179487 39.0930496,9.81666667 L39.0930496,18.5128205 L35.7812995,18.5128205 L35.4213267,15.2 Z M28.9898121,16.0525641 C30.2137197,16.0525641 31.26964,15.8333333 32.2055694,15.4192308 C34.1014263,14.5910256 35.2293412,13.2269231 35.2293412,11.8141026 L35.2293412,11.7166667 C34.8693683,12.2038462 33.9094408,12.5448718 31.653611,12.6666667 C29.0138103,12.7884615 27.8139008,12.9833333 27.069957,13.3487179 C26.4940005,13.6410256 26.2060222,14.0551282 26.2060222,14.6153846 L26.2060222,14.6397436 C26.2060222,15.5653846 26.9739642,16.0525641 28.9898121,16.0525641 Z M42.2128141,18.5128205 L42.2128141,4.53076923 L45.7405479,4.53076923 L46.1965135,8.42820513 C46.9404573,5.91923077 48.6203305,4.38461538 51.8120897,4.38461538 L53.5639574,4.38461538 L53.5639574,8.42820513 L51.7160969,8.42820513 C50.2762056,8.42820513 49.1722889,8.57435897 48.4043468,8.93974359 C46.8684628,9.62179487 46.3645008,11.1320513 46.3645008,13.8846154 L46.3645008,18.5128205 L42.2128141,18.5128205 Z M66.4269866,12.2769231 L66.4269866,18.5128205 L62.4672855,18.5128205 L62.4672855,1.14487179 L78.3300883,1.14487179 L78.3300883,4.75 L66.4269866,4.75 L66.4269866,8.6474359 L77.9941137,8.6474359 L77.9941137,12.2769231 L66.4269866,12.2769231 Z M80.9218927,18.5128205 L80.9218927,0 L85.025583,0 L85.025583,18.5128205 L80.9218927,18.5128205 Z M96.7127009,18.975641 C94.5288657,18.975641 92.776998,18.6833333 91.4330994,18.074359 C88.7932986,16.9051282 87.6893819,14.6641026 87.6893819,11.6192308 C87.6893819,10.0602564 88.073353,8.72051282 88.8172968,7.57564103 C90.3291827,5.28589744 93.1369708,4.01923077 96.8326919,4.01923077 C98.7285488,4.01923077 100.312429,4.31153846 101.704324,4.92051282 C104.464116,6.13846154 106,8.37948718 106,11.6192308 C106,13.0807692 105.688024,14.3474359 105.016074,15.4679487 C103.720172,17.6846154 101.056373,18.975641 96.7127009,18.975641 Z M96.8326919,15.5897436 C100.504415,15.5897436 101.848313,14.2012821 101.848313,11.6192308 C101.848313,8.81794872 100.384424,7.35641026 96.8806882,7.35641026 C93.4969436,7.35641026 91.8410686,8.74487179 91.8410686,11.6192308 C91.8410686,14.274359 93.3289563,15.5897436 96.8326919,15.5897436 Z" id="Car-Flo"></path>
            </g>
        </g>
    </g>
</svg>