<?xml version="1.0" encoding="utf-8"?>
<!-- Generator: Adobe Illustrator 22.1.0, SVG Export Plug-In . SVG Version: 6.00 Build 0)  -->
<svg version="1.1" id="_x38_6385494-26be-4c3c-b508-57452eff5c21"
	 xmlns="http://www.w3.org/2000/svg" xmlns:xlink="http://www.w3.org/1999/xlink" x="0px" y="0px" viewBox="0 0 1024.1 785"
	 style="enable-background:new 0 0 1024.1 785;" xml:space="preserve">
<style type="text/css">
	.st0{opacity:0.1;fill:#F03E3E;enable-background:new    ;}
	.st1{fill:none;stroke:#535461;stroke-width:2;stroke-miterlimit:10;}
	.st2{fill:#F03E3E;}
	.st3{fill:url(#SVGID_1_);}
	.st4{fill:#6F7D95;}
	.st5{fill:#4B5C7A;}
	.st6{fill:#FF4D52;}
	.st7{fill:url(#SVGID_2_);}
	.st8{fill:#472727;}
	.st9{fill:#DDE0E4;}
	.st10{opacity:5.000000e-02;enable-background:new    ;}
	.st11{fill:#DB8B8B;}
	.st12{opacity:0.1;enable-background:new    ;}
	.st13{opacity:0.1;}
	.st14{fill:none;stroke:#6F7D95;stroke-width:2;stroke-miterlimit:10;}
	.st15{fill:#7597CE;}
	.st16{fill:none;}
	.st17{fill:none;stroke:#FF4D52;stroke-miterlimit:10;}
	.st18{fill:none;stroke:#F03E3E;stroke-miterlimit:10;}
	.st19{fill:#A8A8A8;}
	.st20{opacity:0.2;enable-background:new    ;}
	.st21{fill:#FFD037;}
</style>
<title>electric_car</title>
<path class="st0" d="M174.8,115.4c-5.5,6.6-7.6,16-9.9,24.8C145.9,211.1,99,268,45.7,308.7C23.1,326-4.4,349.1,0.6,380
	c2.7,16.6,14.3,28.8,23,42.3C41.8,450.7,47.7,489.1,39,523c-9.9,38.6-37.4,74.5-28.9,113.5c5.3,24,23.1,41.1,40.3,55.8
	c26.8,22.9,54.4,44.3,82.9,64.3c19.1,13.4,39.4,26.4,61.7,28.1c19.6,1.5,38.8-6,57.4-13.3c16.3-6.4,32.9-13.1,46.1-26
	c8.6-8.4,15.4-19.3,24.9-26.1c22.4-16.2,51.1-5.9,76.7,1c60.5,16.2,125.2,10.3,182.8-16.7c88.3-41.5,155.6-128.7,242-175.4
	c37.1-20.1,77.5-32.6,111.9-58.5c19.4-14.7,36-32.8,49.2-53.2c26-40.1,40.1-91.2,36-141.3c-4.1-50.1-26.8-98.3-62.5-126.6
	c-38.2-30.2-86.6-35.9-130.1-54.1c-44.9-18.8-84.9-51-129.4-71.1c-73-32.9-156.9-31-228.3,5.1c-48.5,24.5-97.5,81.7-151.5,86
	C281.8,117.5,204.8,79,174.8,115.4z"/>
<path class="st1" d="M868.1,347.1c0,0-14.6-49.5,2.7-85.8c7.4-15.2,9.6-32.4,6.3-49c-1.6-7.9-3.9-15.6-6.9-23"/>
<path class="st2" d="M881,166.2c0,6.1-11,23.6-11,23.6s-11-17.6-11-23.6c-0.4-6.1,4.1-11.3,10.2-11.8c6.1-0.4,11.3,4.1,11.8,10.2
	C881,165.2,881,165.7,881,166.2L881,166.2z"/>
<path class="st2" d="M899.1,199.8c-3.3,5.1-22.1,13.9-22.1,13.9s0.3-20.7,3.6-25.8c3.7-4.9,10.5-5.8,15.4-2.2
	C900.5,189,901.7,195,899.1,199.8L899.1,199.8z"/>
<path class="st2" d="M898.3,257.2c-5.4,2.7-26,0.8-26,0.8s10.8-17.7,16.2-20.4c5.6-2.3,12,0.3,14.4,5.9
	C905,248.6,903.1,254.4,898.3,257.2L898.3,257.2z"/>
<path class="st2" d="M888,300.5c-4.9,3.6-25.5,5.2-25.5,5.2s7.6-19.3,12.5-22.9c5.2-3.2,12-1.5,15.1,3.7
	C892.8,291.1,891.9,297,888,300.5L888,300.5z"/>
<path class="st2" d="M854,214.9c4.3,4.2,24.6,8.6,24.6,8.6s-5-20.1-9.3-24.3c-4-4.5-11-4.9-15.5-0.9c-4.5,4-4.9,11-0.9,15.5
	C853.3,214.2,853.6,214.5,854,214.9z"/>
<path class="st2" d="M842.6,265.6c5.4,2.7,26,0.8,26,0.8s-10.8-17.7-16.2-20.4c-5.6-2.3-12,0.3-14.4,5.9
	C835.9,257,837.8,262.8,842.6,265.6L842.6,265.6z"/>
<path class="st2" d="M838.2,316.5c4.9,3.6,25.5,5.2,25.5,5.2s-7.6-19.3-12.5-22.9c-4.6-4-11.5-3.6-15.5,1c-4,4.6-3.6,11.5,1,15.5
	C837.1,315.8,837.7,316.1,838.2,316.5L838.2,316.5z"/>
<path class="st0" d="M881,166.2c0,6.1-11,23.6-11,23.6s-11-17.6-11-23.6c-0.4-6.1,4.1-11.3,10.2-11.8c6.1-0.4,11.3,4.1,11.8,10.2
	C881,165.2,881,165.7,881,166.2L881,166.2z"/>
<path class="st0" d="M899.1,199.8c-3.3,5.1-22.1,13.9-22.1,13.9s0.3-20.7,3.6-25.8c3.7-4.9,10.5-5.8,15.4-2.2
	C900.5,189,901.7,195,899.1,199.8L899.1,199.8z"/>
<path class="st0" d="M898.3,257.2c-5.4,2.7-26,0.8-26,0.8s10.8-17.7,16.2-20.4c5.6-2.3,12,0.3,14.4,5.9
	C905,248.6,903.1,254.4,898.3,257.2L898.3,257.2z"/>
<path class="st0" d="M888,300.5c-4.9,3.6-25.5,5.2-25.5,5.2s7.6-19.3,12.5-22.9c5.2-3.2,12-1.5,15.1,3.7
	C892.8,291.1,891.9,297,888,300.5L888,300.5z"/>
<path class="st0" d="M854,214.9c4.3,4.2,24.6,8.6,24.6,8.6s-5-20.1-9.3-24.3c-4-4.5-11-4.9-15.5-0.9c-4.5,4-4.9,11-0.9,15.5
	C853.3,214.2,853.6,214.5,854,214.9z"/>
<path class="st0" d="M842.6,265.6c5.4,2.7,26,0.8,26,0.8s-10.8-17.7-16.2-20.4c-5.6-2.3-12,0.3-14.4,5.9
	C835.9,257,837.8,262.8,842.6,265.6L842.6,265.6z"/>
<path class="st0" d="M838.2,316.5c4.9,3.6,25.5,5.2,25.5,5.2s-7.6-19.3-12.5-22.9c-4.6-4-11.5-3.6-15.5,1c-4,4.6-3.6,11.5,1,15.5
	C837.1,315.8,837.7,316.1,838.2,316.5L838.2,316.5z"/>
<path class="st1" d="M929.1,426.1c0,0-14.6-49.5,2.7-85.8c7.4-15.2,9.6-32.4,6.3-49c-1.6-7.9-3.9-15.6-6.9-23"/>
<path class="st2" d="M942,245.3c0,6.1-11,23.6-11,23.6s-11-17.6-11-23.6c-0.4-6.1,4.1-11.3,10.2-11.8c6.1-0.4,11.3,4.1,11.8,10.2
	C942,244.2,942,244.7,942,245.3L942,245.3z"/>
<path class="st2" d="M960.1,278.8c-3.3,5.1-22.1,13.9-22.1,13.9s0.3-20.7,3.6-25.8c2.9-5.3,9.6-7.2,14.9-4.3s7.2,9.6,4.3,14.9
	C960.7,278,960.4,278.4,960.1,278.8z"/>
<path class="st2" d="M959.4,336.2c-5.4,2.7-26,0.8-26,0.8s10.8-17.7,16.2-20.4c5.2-3.1,12-1.4,15.1,3.8c3.1,5.2,1.4,12-3.8,15.1
	C960.4,335.7,959.9,336,959.4,336.2L959.4,336.2z"/>
<path class="st2" d="M949,379.5c-4.9,3.6-25.5,5.2-25.5,5.2s7.6-19.3,12.5-22.9c5.2-3.2,12-1.5,15.1,3.7
	C953.8,370.1,952.9,376,949,379.5L949,379.5z"/>
<path class="st2" d="M915,293.9c4.3,4.2,24.6,8.6,24.6,8.6s-5-20.1-9.3-24.3c-4.6-3.9-11.6-3.3-15.5,1.3
	C911.3,283.6,911.4,289.8,915,293.9z"/>
<path class="st2" d="M903.6,344.6c5.4,2.7,26,0.8,26,0.8s-10.8-17.7-16.2-20.4c-5.6-2.3-12,0.3-14.4,5.9
	C896.9,336,898.8,341.8,903.6,344.6L903.6,344.6z"/>
<path class="st2" d="M899.2,395.5c4.9,3.6,25.5,5.2,25.5,5.2s-7.6-19.3-12.5-22.9c-4.6-4-11.5-3.6-15.5,1c-4,4.6-3.6,11.5,1,15.5
	C898.1,394.8,898.7,395.1,899.2,395.5L899.2,395.5z"/>
<path class="st0" d="M942,245.3c0,6.1-11,23.6-11,23.6s-11-17.6-11-23.6c-0.4-6.1,4.1-11.3,10.2-11.8c6.1-0.4,11.3,4.1,11.8,10.2
	C942,244.2,942,244.7,942,245.3L942,245.3z"/>
<path class="st0" d="M960.1,278.8c-3.3,5.1-22.1,13.9-22.1,13.9s0.3-20.7,3.6-25.8c2.9-5.3,9.6-7.2,14.9-4.3s7.2,9.6,4.3,14.9
	C960.7,278,960.4,278.4,960.1,278.8z"/>
<path class="st0" d="M959.4,336.2c-5.4,2.7-26,0.8-26,0.8s10.8-17.7,16.2-20.4c5.2-3.1,12-1.4,15.1,3.8c3.1,5.2,1.4,12-3.8,15.1
	C960.4,335.7,959.9,336,959.4,336.2L959.4,336.2z"/>
<path class="st0" d="M949,379.5c-4.9,3.6-25.5,5.2-25.5,5.2s7.6-19.3,12.5-22.9c5.2-3.2,12-1.5,15.1,3.7
	C953.8,370.1,952.9,376,949,379.5L949,379.5z"/>
<path class="st0" d="M915,293.9c4.3,4.2,24.6,8.6,24.6,8.6s-5-20.1-9.3-24.3c-4.6-3.9-11.6-3.3-15.5,1.3
	C911.3,283.6,911.4,289.8,915,293.9z"/>
<path class="st0" d="M903.6,344.6c5.4,2.7,26,0.8,26,0.8s-10.8-17.7-16.2-20.4c-5.6-2.3-12,0.3-14.4,5.9
	C896.9,336,898.8,341.8,903.6,344.6L903.6,344.6z"/>
<path class="st0" d="M899.2,395.5c4.9,3.6,25.5,5.2,25.5,5.2s-7.6-19.3-12.5-22.9c-4.6-4-11.5-3.6-15.5,1c-4,4.6-3.6,11.5,1,15.5
	C898.1,394.8,898.7,395.1,899.2,395.5L899.2,395.5z"/>
<ellipse transform="matrix(0.9953 -9.706178e-02 9.706178e-02 0.9953 -47.2066 54.0771)" class="st0" cx="532.2" cy="512.2" rx="494.1" ry="79.5"/>
<linearGradient id="SVGID_1_" gradientUnits="userSpaceOnUse" x1="594.6393" y1="127.5801" x2="594.6393" y2="482.1364" gradientTransform="matrix(1 0 0 -1 -87.95 724.49)">
	<stop  offset="0" style="stop-color:#808080;stop-opacity:0.25"/>
	<stop  offset="0.54" style="stop-color:#808080;stop-opacity:0.12"/>
	<stop  offset="1" style="stop-color:#808080;stop-opacity:0.1"/>
</linearGradient>
<path class="st3" d="M981.2,471.2c18.5-37.9,14.7-99.6,12.7-120.5c-0.4-4.6-0.8-7.2-0.8-7.2s-16.3-2.6-10.3-22.3
	c2.9-9.7-7.5-15-18.9-17.9c-8.2-1.9-16.5-3.1-24.8-3.5L781.2,290l0,0c-21.7-34.4-64.2-28.8-64.2-28.8s-38-4-64.9-4.4
	c-4.1-3.6-8.6-6.7-13.4-9.3c-2.9-1.7-5.9-3.1-9.1-4.1c-7.8-2.3-16.2-0.7-22.7,4.2c-1.6,1.1-2.8,2.6-3.7,4.3
	c-0.3,0.8-0.6,1.6-0.8,2.4c-0.4,1.4-0.7,2.8-1,4.3c-0.2,0.7-0.6,1.4-1,2c-1.1,1.5-2.9,2.7-3.2,4.5c0,0.1,0,0.2,0,0.3
	c-0.2,0.4-0.3,0.7-0.4,1.1c-0.1,0.8,0.1,1.6,0.5,2.4c0.1,0.1,0.1,0.2,0.2,0.3c-1.3,1.9-2.4,4-3.2,6.2c-0.4,0.2-0.7,0.4-1.1,0.7
	l-0.3,0.2v0.6l-0.2,0.1l-0.4,9.9l0.2,0.2c0.6,9.3,5.7,17.8,13.6,22.8c0.1,0.6,0.2,1.3,0.4,1.9c0.5,3.2,0.8,6.5,0.7,9.8h-0.2
	c-4.7-2-12.7,0.9-19.7,4.4H498c17.5-22.5,38.8-39.9,38.8-39.9v-19.7c-15.3-0.8-149.3,63.6-178.7,77.9l-1.3,0.6l-151,4.7
	c-27.4-0.2-51.3,3.9-72,10.4c-34.6,10.9-65.7,30.8-90.2,57.6C25.8,437.1,18,453.2,18,453.2l0.2,1.4L18,455l0.2,0.2l4.1,32.1
	l2.8,22.1C5.6,522,30.9,527,30.9,527c24,20.6,62.6,19.7,62.6,19.7c9.4,12.9,36.9,11.2,36.9,11.2h144.1c2.2-13.2,5.2-26.3,9-39.2
	c6.2,44.3,41.1,78.2,83.3,78.2c3.1,0,6.3-0.2,9.4-0.6c3.1,0.4,6.2,0.6,9.4,0.6c42.7,0,77.9-34.7,83.5-79.8h7
	c-1.3,10.1-3.6,20-6.8,29.6C598.6,509,839.6,491,839.6,491c1-9.5,2.1-18.7,3.3-27.5c9.9,24.7,32.4,41.9,58.6,41.9
	c2.4,0,4.8-0.2,7.1-0.4c2.4,0.3,4.7,0.4,7.1,0.4c31.1,0,57-24.3,62.8-56.5c0.8,5.7,1.2,11.4,1.3,17.1c-1.1,5.5-2.1,9-2.2,9.4
	c0.8-1.4,1.5-2.9,2.2-4.4c0,0.6,0,1.2,0,1.8c-0.2,1-0.4,1.6-0.5,1.8l0.4-0.8c0,0.4,0,0.9,0,1.3C979.9,475.2,980.4,473.7,981.2,471.2
	z"/>
<rect x="669.2" y="335.1" class="st4" width="296.9" height="119.8"/>
<polygon class="st5" points="593.7,279 635.9,373.5 719.4,368.4 722.8,329.6 725.3,284 607.2,275.6 "/>
<path class="st6" d="M593.7,279c0,0,16-15.2,35.4-18.6s84.3,3.4,84.3,3.4l9.3,16l-1.7,7.6L593.7,279z"/>
<rect x="453.3" y="327.5" class="st5" width="299.4" height="87.7"/>
<linearGradient id="SVGID_2_" gradientUnits="userSpaceOnUse" x1="1190.6313" y1="809.4108" x2="1190.6313" y2="1072.7799" gradientTransform="matrix(0.9656 0.26 0.26 -0.9656 -777.1421 979.0045)">
	<stop  offset="0" style="stop-color:#808080;stop-opacity:0.25"/>
	<stop  offset="0.54" style="stop-color:#808080;stop-opacity:0.12"/>
	<stop  offset="1" style="stop-color:#808080;stop-opacity:0.1"/>
</linearGradient>
<path class="st7" d="M679,387.2c7.9-26.5-7.9-43.8-7.9-43.8L645,325.1c0,0.1,0,0.1-0.1,0.2c-3.4-4-5.8-8.7-7.1-13.8
	c-0.1-0.3-0.2-0.6-0.2-1c2.4-1.8,4.5-3.9,6.2-6.4c4.3-2.6,6.2-6.8,6.9-11c2.7-4.1,4.9-8.5,6.5-13.1c0.3-0.8,0.5-1.5,0.7-2.3
	c0.5-1.4,0.7-3,0.7-4.5c-0.2-1.7-0.8-3.3-1.7-4.8c-4.4-8-12.3-13.6-20.3-18.1c-2.8-1.7-5.8-3-8.9-4.1c-7.7-2.2-15.9-0.7-22.3,4.2
	c-1.5,1.1-2.8,2.5-3.6,4.2c-0.3,0.8-0.6,1.6-0.7,2.4c-0.4,1.4-0.7,2.8-1,4.2c-0.2,0.7-0.5,1.3-0.9,1.9c-1.1,1.5-2.9,2.6-3.1,4.5
	c0,0.1,0,0.2,0,0.3c-0.2,0.3-0.3,0.7-0.4,1.1c-0.1,0.8,0.1,1.6,0.5,2.3c0.1,0.1,0.1,0.2,0.2,0.3c-1.3,1.9-2.4,3.9-3.2,6.1
	c-0.4,0.2-0.7,0.4-1.1,0.7l-0.3,0.2v0.6l-0.2,0.1l-0.4,9.7l0.2,0.2c0.6,9.2,5.6,17.5,13.3,22.4c0.1,0.6,0.2,1.2,0.4,1.9
	c0.6,3.5,0.8,7,0.7,10.6c0-0.3,0-0.6,0-0.9c-7.2-3.3-23,5.8-29.3,9.8l0,0c-1,0.5-1.9,1-2.7,1.7l-0.1,0.1l0,0
	c-4.4,3.5-13,13.4-19.8,38.7c-9.5,35.3-8.5,43.3-15.4,51.5s-13.8,65.8-13.8,65.8l13.9,3.8l1.8-5.7c16.6,15.1,62.9,22.4,62.9,22.4
	l1.4-4.4c7.1,2.6,19-1.3,19-1.3c17.4-6.1,23.9-21.7,36.5-42.3S679,387.2,679,387.2z M609,493.5l32.1-99.6
	c2.9,15.5-9.9,39.8-11.1,55.7C629.3,459.9,617.3,480.2,609,493.5z"/>
<path class="st8" d="M649.1,282.4c0,0,5.6,21.3-11,25s-5.7-9.6-5.7-9.6l16-15.6L649.1,282.4z"/>
<path class="st9" d="M579.8,333.1c0,0-12.3,5-21.4,38.7s-8.2,41.3-14.7,49.1s-13.2,62.8-13.2,62.8l13.1,3.5l11.4-36.7l31.3-97
	L579.8,333.1z"/>
<path class="st10" d="M579.8,333.1c0,0-12.3,5-21.4,38.7s-8.2,41.3-14.7,49.1s-13.2,62.8-13.2,62.8l13.1,3.5l11.4-36.7l31.3-97
	L579.8,333.1z"/>
<path class="st11" d="M648.3,329.3c0,0-51.7,26.3-44.1,9.1c3.7-8.5,3.6-17.2,2.5-24c-0.6-4-1.7-7.9-3.2-11.6c0,0,35.1-27.8,33.1-5.1
	c-0.5,4.9-0.2,9.8,1,14.6C640.5,324.3,648.3,329.3,648.3,329.3z"/>
<path class="st12" d="M637.5,312.4c-6.7,5.4-15.7,7.3-24,5c-2.4-0.6-4.7-1.6-6.8-2.9c-0.6-4-1.7-7.9-3.2-11.6
	c0,0,35.1-27.8,33.1-5.1C636,302.6,636.3,307.6,637.5,312.4z"/>
<ellipse transform="matrix(0.26 -0.9656 0.9656 0.26 179.5529 814.11)" class="st11" cx="620.9" cy="289.9" rx="27" ry="27"/>
<path class="st12" d="M607.3,276.7c-3,1.9-7,0.9-8.9-2.1c0-0.1-0.1-0.2-0.1-0.2c-0.4-0.7-0.5-1.5-0.5-2.2c0.2-1.7,2-2.8,3-4.3
	c1.6-2.3,1.3-5.5,2.5-8.1c0.8-1.6,2-3,3.4-4c5.9-4.6,13.7-6.2,21-4.1c2.9,1,5.7,2.2,8.3,3.8c7.5,4.3,14.9,9.5,19,17.2
	c0.8,1.4,1.3,3,1.5,4.6c0,1.7-0.3,3.5-0.9,5.1c-1.5,4.5-3.6,8.7-6.2,12.7c-0.9-1.1-2-2-3.2-2.6c-1.3-0.6-2.8-0.3-3.8,0.7
	c-0.9,1.1-1.4,3.2-2.7,2.7c-0.9-0.3-0.8-1.5-0.8-2.4c0.2-4-2-7.8-4.9-10.5s-6.6-4.5-10.1-6.2c-2.6-1.3-6-4.1-8.8-4.7
	C611.5,271.4,609.9,275.2,607.3,276.7z"/>
<path class="st8" d="M607.7,275.3c-3,1.9-7,0.9-8.9-2.1c0-0.1-0.1-0.2-0.1-0.2c-0.4-0.7-0.5-1.5-0.5-2.2c0.2-1.7,2-2.8,3-4.3
	c1.6-2.3,1.3-5.5,2.5-8.1c0.8-1.6,2-3,3.4-4c5.9-4.6,13.7-6.2,21-4.1c2.9,1,5.7,2.2,8.3,3.8c7.5,4.3,14.9,9.5,19,17.2
	c0.8,1.4,1.3,3,1.5,4.6c0,1.7-0.3,3.5-0.9,5.1c-1.5,4.5-3.6,8.7-6.2,12.7c-0.9-1.1-2-2-3.2-2.6c-1.3-0.6-2.8-0.3-3.8,0.7
	c-0.9,1.1-1.4,3.2-2.7,2.7c-0.9-0.3-0.8-1.5-0.8-2.4c0.2-4-2-7.8-4.9-10.5s-6.6-4.5-10.1-6.2c-2.6-1.3-6-4.1-8.8-4.7
	C611.9,270,610.2,273.8,607.7,275.3z"/>
<path class="st9" d="M621.9,332.9c0,0,21.4-4.2,22.3-7.6l24.5,17.3c0,0,14.7,16.5,7.2,41.7c0,0-6.1,52.9-18,72.5s-18.8,45.1-35.1,51
	c0,0-15.7-10.1-20.9-10c0,0,26.6-38.5,27.7-53.7s13.3-38.4,10.6-53.1l-36,111.9c0,0-58-9-63.9-28.2c0,0,5-7.5,4.1-15.1
	s21.9-64.9,21.9-64.9l10.9-59.7c0,0,21.6-15.1,30.2-11.2C607.3,323.7,605.8,331.1,621.9,332.9z"/>
<g class="st13">
	<path d="M629.7,286.5L629.7,286.5c-5.3-7.2-15.3-1.3-17-0.3l-2.6-0.3c-2.3-2.5-9.2-9-15.7-4.2l-0.3,0.2l-0.4,9.2l0.3,0.2
		c1.9,1.5,4,2.5,6.3,3.2c1.4,0.4,3,0.5,4.4,0.2c2.2-0.5,4.1-2,5.1-4l1.3,0.1l1-0.2c0.4,2.2,1.7,4,3.6,5.1c4.5,2.5,11,0,11.3,0
		l0.3-0.1l2.4-8.9L629.7,286.5z M626.3,294.6c-1.3,0.5-6.3,1.9-9.7,0c-1.7-1.1-2.8-2.9-3-4.9l-0.1-0.7l-2.2,0.5l-2.2-0.1l-0.2,0.4
		c-0.8,1.8-2.4,3.2-4.4,3.7c-3.8,0.8-8.1-2.1-9.3-2.9l0.3-7.8c5.7-3.8,11.9,2.4,13.7,4.4l0.2,0.2l3.7,0.4l0.2-0.1
		c0.1-0.1,9.2-6.1,14.3-1.2c0.3,0.2,0.5,0.5,0.7,0.8L626.3,294.6z"/>
	<path d="M646,291.1l-17-1.4l-1.4-0.3l0.6-2.4c-0.2-0.3-0.5-0.5-0.7-0.8l2.1,0.2l13.9,1.4L646,291.1z"/>
</g>
<path class="st8" d="M629.8,285.8L629.8,285.8c-5.3-7.2-15.3-1.3-17-0.3l-2.6-0.3c-2.3-2.5-9.2-9-15.7-4.2l-0.3,0.2l-0.4,9.2
	l0.3,0.2c1.9,1.5,4,2.5,6.3,3.2c1.4,0.4,3,0.5,4.4,0.2c2.2-0.5,4.1-2,5.1-4l1.3,0.1l1-0.2c0.4,2.2,1.7,4,3.6,5.1
	c4.5,2.5,11,0,11.3,0l0.3-0.1l2.4-8.9L629.8,285.8z M626.5,294c-1.3,0.5-6.3,1.9-9.7,0c-1.7-1.1-2.8-2.9-3-4.9l-0.1-0.7l-2.2,0.5
	l-2.2-0.1l-0.2,0.4c-0.8,1.9-2.4,3.2-4.4,3.7c-3.8,0.8-8.1-2.1-9.3-2.9l0.3-7.8c5.7-3.8,11.9,2.4,13.7,4.4l0.2,0.2l3.7,0.4l0.2-0.1
	c0.1-0.1,9.2-6.1,14.3-1.2c0.3,0.2,0.5,0.5,0.7,0.8L626.5,294z"/>
<path class="st8" d="M646.2,290.5l-16.9-1.4l-1.4-0.3l0.6-2.4c-0.2-0.3-0.5-0.5-0.7-0.8l2.1,0.2l13.9,1.4L646.2,290.5z"/>
<rect x="233.1" y="395.8" class="st4" width="296.9" height="119.8"/>
<ellipse class="st5" cx="369" cy="503.3" rx="82.9" ry="90.7"/>
<ellipse class="st10" cx="369" cy="503.3" rx="82.9" ry="90.7"/>
<ellipse class="st5" cx="387.4" cy="503.3" rx="82.9" ry="90.7"/>
<circle class="st10" cx="385.6" cy="503.8" r="36.8"/>
<circle class="st14" cx="385.6" cy="503.8" r="11"/>
<circle class="st4" cx="385.6" cy="484.5" r="2.8"/>
<circle class="st4" cx="400.7" cy="489.8" r="2.8"/>
<circle class="st4" cx="406.3" cy="504.8" r="2.8"/>
<circle class="st4" cx="398.4" cy="518.8" r="2.8"/>
<circle class="st4" cx="382.7" cy="521.7" r="2.8"/>
<circle class="st4" cx="370.3" cy="511.5" r="2.8"/>
<circle class="st4" cx="370.2" cy="495.5" r="2.8"/>
<path class="st6" d="M982.7,433.3L982.7,433.3c-2.8,19.5-10.7,40.9-10.7,40.9c0.1-1.3,0.1-2.7,0.1-4c0-1.7,0-3.3,0-5
	c-1-53.9-30.3-87.1-49.3-103c-4.9-4.2-10.2-7.9-15.8-11.2h51.4c0,0,20.2,41.3,24.5,61.6C984.2,418.3,983.8,425.7,982.7,433.3z"/>
<path class="st10" d="M982.7,433.3L982.7,433.3c-2.8,19.5-10.7,40.9-10.7,40.9c0.1-1.3,0.1-2.7,0.1-4c0-1.7,0-3.3,0-5
	c-1-53.9-30.3-87.1-49.3-103c-4.9-4.2-10.2-7.9-15.8-11.2h51.4c0,0,20.2,41.3,24.5,61.6C984.2,418.3,983.8,425.7,982.7,433.3z"/>
<ellipse class="st5" cx="895" cy="435" rx="63" ry="69"/>
<ellipse class="st10" cx="895" cy="435" rx="63" ry="69"/>
<ellipse class="st5" cx="909" cy="435" rx="63" ry="69"/>
<circle class="st10" cx="907.6" cy="435.4" r="28"/>
<circle class="st14" cx="907.6" cy="435.4" r="8.4"/>
<circle class="st4" cx="907.6" cy="420.7" r="2.1"/>
<ellipse transform="matrix(0.766 -0.6428 0.6428 0.766 -57.9742 690.1605)" class="st4" cx="919.1" cy="424.7" rx="2.1" ry="2.1"/>
<ellipse transform="matrix(0.1736 -0.9848 0.9848 0.1736 333.5392 1269.7745)" class="st4" cx="923.4" cy="436.1" rx="2.1" ry="2.1"/>
<ellipse transform="matrix(0.866 -0.5 0.5 0.866 -100.4688 518.5576)" class="st4" cx="917.4" cy="446.8" rx="2.1" ry="2.1"/>
<circle class="st4" cx="905.4" cy="449" r="2.1"/>
<ellipse transform="matrix(0.9397 -0.342 0.342 0.9397 -96.878 333.0637)" class="st4" cx="896" cy="441.2" rx="2.1" ry="2.1"/>
<ellipse transform="matrix(0.5 -0.866 0.866 0.5 76.3771 990.4011)" class="st4" cx="895.9" cy="429.1" rx="2.1" ry="2.1"/>
<path class="st6" d="M33.7,512.6l-7.6-59.9h90.2l46.4,41.3l-22.8,53.1C139.9,547.2,48.1,532,33.7,512.6z"/>
<path class="st10" d="M162.7,494.1l-22.8,53.1c0,0-91.9-15.2-106.3-34.6l-0.3-2.6l-7-55.4l-0.1-0.5l-0.2-1.3h90.2L162.7,494.1z"/>
<path class="st15" d="M536.4,268.9v19.4c0,0-46.6,38-57.7,73.9c-1.9,5.8-2.7,12-2.2,18.1c4.2,39.6-121.4-32.1-121.4-32.1l5.6-2.7
	C389.5,331.5,521.4,268.1,536.4,268.9z"/>
<path class="st6" d="M642.7,362.5c0,0,43.7-21.5,50.7-37.3c0.9-2.1,1.8-4.3,2.9-6.4c4.3-8.7,13.4-29.1,8.8-39
	c-5.9-12.6,14.3,1.7,14.3,1.7l-11.8,59.9l-28.7,16l-37.1,5.1"/>
<path class="st10" d="M642.7,362.5c0,0,43.7-21.5,50.7-37.3c0.9-2.1,1.8-4.3,2.9-6.4c4.3-8.7,13.4-29.1,8.8-39
	c-5.9-12.6,14.3,1.7,14.3,1.7l-11.8,59.9l-28.7,16l-37.1,5.1"/>
<path class="st10" d="M162.7,494.1l-22.8,53.1c0,0-91.9-15.2-106.3-34.6l-0.3-2.6c0.4-0.2,0.8-0.5,1.2-0.8c0,0,27.8,21.9,91.1,27
	c0,0,38-30.4-23.6-64.1c0,0-53.6,1.7-75.7-17.5l-0.2-0.2l0.2-0.3c0.1-0.3,0.4-0.7,0.7-1.3h89.4L162.7,494.1z"/>
<path class="st10" d="M476.5,380.2c4.2,39.6-121.4-32.1-121.4-32.1l5.6-2.7c3.7,3.9,18.5,17.2,48,15.8c19-0.9,47.8-0.1,70,0.9
	C476.7,367.9,476,374.1,476.5,380.2z"/>
<path class="st10" d="M530,395.8v119.8h-55.2c3.6-27.9,1.5-68.5-33.8-91.8c-26.9-17.6-61.4-18.6-89.3-2.7
	c-23.2,13.2-49.1,40.2-65.6,94.4h-53V395.8H530z"/>
<path class="st10" d="M982.7,433.3L982.7,433.3c-2.1,13.2-5.4,26.1-10.6,37c-0.7,1.5-1.4,2.9-2.2,4.3c0.1-0.5,1.1-3.9,2.2-9.3
	c5.4-26.2,14.5-98.7-46.9-102.8c-0.8,0-1.6-0.1-2.4-0.1c-4.9-4.2-10.2-8-15.8-11.2h51.4c0,0,20.2,41.3,24.5,61.6
	C984.2,418.3,983.8,425.7,982.7,433.3z"/>
<path class="st6" d="M971.6,473.8c0.8-2.9,29.3-107.1-44.7-112.1c-75.1-5.1-84.3,51.5-92.8,128.2c0,0-237,17.7-364.4,54.8
	c0,0,30.6-83.8-27-121.7c-26.9-17.6-61.4-18.6-89.3-2.7c-28.4,16.2-60.9,53-75.2,135.3H136.6c0,0-27,1.7-36.3-11
	c0,0-38,0.8-61.6-19.4c0,0-25.3-5.1-5.1-17.7c0,0,28.7,21.9,91.9,27c0,0,38-30.4-23.6-64.1c0,0-54,1.7-75.9-17.7
	c0,0,7.7-15.9,25.2-35.2c24-26.4,54.6-46,88.6-56.7c22.9-7.1,46.8-10.5,70.9-10.2l148.9-4.6c0,0,14.4,18.6,48.9,16.9
	c34.5-1.7,102.1,2.5,102.1,2.5h0.7l138.9-6.3c4-0.6,7.9-1.4,11.8-2.5c20.1-5.5,58.3-22.1,51.5-68.4L932,301.8
	c8.2,0.4,16.4,1.5,24.4,3.5c11.2,2.9,21.5,8.1,18.6,17.6c-5.9,19.4,10.1,21.9,10.1,21.9s0.3,2.6,0.8,7.1
	C987.9,373.1,991.8,436.9,971.6,473.8z"/>
<path class="st16" d="M248.8,463.7c0,0-41.3,25.3-45.5,81h23.6c0,0,9.3-60.7,36.3-81H248.8z"/>
<path class="st16" d="M737.1,465.4l-214.2,25.3c0,0-14.2-90.2-11.5-125.3l138.9-6.3c4-0.6,7.9-1.4,11.8-2.5v8.4l104.6-25.3
	C766.6,339.7,784.4,365.8,737.1,465.4z"/>
<path class="st10" d="M737.1,465.4l-214.2,25.3c0,0-14.2-90.2-11.5-125.3l138.9-6.3c4-0.6,7.9-1.4,11.8-2.5v8.4l104.6-25.3
	C766.6,339.7,784.4,365.8,737.1,465.4z"/>
<path class="st6" d="M713.5,263.8c0,0,45.5-5.9,65.8,32.9l-65.1-2.5L713.5,263.8z"/>
<path class="st16" d="M776.1,310.3c-1.8,5.6-0.4,11.8,9.9,16c8.6,3.6,18.8-0.6,21.7-9.4c1.7-5.2,0.5-11-8.8-15.8
	S779.3,300.5,776.1,310.3z"/>
<path class="st10" d="M776.1,310.3c-1.8,5.6-0.4,11.8,9.9,16c8.6,3.6,18.8-0.6,21.7-9.4c1.7-5.2,0.5-11-8.8-15.8
	S779.3,300.5,776.1,310.3z"/>
<path class="st17" d="M27.7,465.4c0,0,54.1,28,92.9,17.4"/>
<path class="st17" d="M29.6,480.5c0,0,34.9,26.9,105.5,20.7"/>
<path class="st17" d="M31.2,493.2c0,0,34.7,30.1,105.8,20.5"/>
<path class="st10" d="M776.7,292.2c0,0-28.2,24.3-53.9,35.3C722.8,327.5,761.8,334.4,776.7,292.2z"/>
<path class="st12" d="M478.1,363.8c0,0,133.7,12.6,184.3,0.8c0,0,2.7,1.8-13.4-5.4L478.1,363.8z"/>
<path class="st10" d="M985.9,351.9c-8.3-5.5-21.5-16.8-19.7-29.5c0.9-6.3-3.6-12.2-9.7-17.2c11.2,2.9,21.5,8.1,18.6,17.6
	c-5.9,19.4,10.1,21.9,10.1,21.9S985.4,347.4,985.9,351.9z"/>
<path class="st18" d="M784.2,415.3c0,0,17.5,34.4,3.2,53.1s1.3,70,1.3,70"/>
<path class="st2" d="M789.3,404.6c0,6.6-4.9,12-4.9,12s-4.9-5.4-4.9-12s4.9-12,4.9-12S789.3,398,789.3,404.6z"/>
<path class="st18" d="M793.2,415.3c0,0-17.5,34.4-3.2,53.1s-1.3,70-1.3,70"/>
<path class="st2" d="M788,404.6c0,6.6,4.9,12,4.9,12s4.9-5.4,4.9-12s-4.9-12-4.9-12S788,398,788,404.6z"/>
<path class="st12" d="M788,404.6c0,6.6,4.9,12,4.9,12s4.9-5.4,4.9-12s-4.9-12-4.9-12S788,398,788,404.6z"/>
<path class="st18" d="M800.4,415.3c0,0,17.5,34.4,3.2,53.1s1.3,70,1.3,70"/>
<path class="st2" d="M805.5,404.6c0,6.6-4.9,12-4.9,12s-4.9-5.4-4.9-12s4.9-12,4.9-12S805.5,398,805.5,404.6z"/>
<path class="st2" d="M802.8,432.1c-4.6,4.8-11.8,5.3-11.8,5.3s0.2-7.2,4.8-12s11.8-5.3,11.8-5.3S807.4,427.4,802.8,432.1z"/>
<path class="st2" d="M803.3,455.8c-4.6,4.8-11.8,5.3-11.8,5.3s0.2-7.2,4.8-12s11.8-5.3,11.8-5.3S807.9,451.1,803.3,455.8z"/>
<path class="st2" d="M778.4,468.9c4.3,5,4.2,12.2,4.2,12.2s-7.2-0.9-11.5-5.9s-4.2-12.2-4.2-12.2S774,463.9,778.4,468.9z"/>
<path class="st2" d="M782.4,418.3c5.5,3.7,7.3,10.7,7.3,10.7s-7.2,1.1-12.7-2.5s-7.3-10.7-7.3-10.7S776.9,414.7,782.4,418.3z"/>
<path class="st12" d="M782.4,418.3c5.5,3.7,7.3,10.7,7.3,10.7s-7.2,1.1-12.7-2.5s-7.3-10.7-7.3-10.7S776.9,414.7,782.4,418.3z"/>
<path class="st18" d="M809.4,415.3c0,0-17.5,34.4-3.2,53.1s-1.3,70-1.3,70"/>
<path class="st2" d="M804.3,404.6c0,6.6,4.9,12,4.9,12s4.9-5.4,4.9-12s-4.9-12-4.9-12S804.3,398,804.3,404.6z"/>
<path class="st12" d="M804.3,404.6c0,6.6,4.9,12,4.9,12s4.9-5.4,4.9-12s-4.9-12-4.9-12S804.3,398,804.3,404.6z"/>
<path class="st2" d="M805.7,432.7c-4.7,4.7-5,12-5,12s7.2-0.4,11.9-5.1s5-12,5-12S810.3,427.9,805.7,432.7z"/>
<path class="st12" d="M805.7,432.7c-4.7,4.7-5,12-5,12s7.2-0.4,11.9-5.1s5-12,5-12S810.3,427.9,805.7,432.7z"/>
<path class="st2" d="M814.8,465.5c-4.7,4.7-5,12-5,12s7.2-0.4,11.9-5.1s5-12,5-12S819.4,460.8,814.8,465.5z"/>
<path class="st18" d="M801.4,458.3c0,0,10.5-16.6,25.3-17"/>
<path class="st18" d="M793.2,448.2c0,0-10.5-16.6-25.3-17"/>
<path class="st18" d="M791.8,471.9c0,0,10.5-16.6,25.3-17"/>
<circle class="st2" cx="826.2" cy="441.2" r="2.7"/>
<circle class="st2" cx="768.1" cy="431.4" r="2.7"/>
<path class="st18" d="M799.5,477.4c0,0-10.5-16.6-25.3-17"/>
<circle class="st2" cx="774.5" cy="460.5" r="2.7"/>
<circle class="st2" cx="817.3" cy="455.1" r="2.7"/>
<path class="st19" d="M857.8,518.5c0,0-25.4-5.1-32.2-11.8s-37.2-18.6-40.6-10.2s-45.7,37.3-17,42.3s67.7,6.8,76.2,3.4
	S857.8,518.5,857.8,518.5z"/>
<path class="st20" d="M768,535.7c28.8,5.1,67.7,6.8,76.2,3.4c6.4-2.6,10.9-15,12.7-20.7l0.8,0.2c0,0-5.1,20.3-13.5,23.7
	s-47.4,1.7-76.2-3.4c-8.3-1.5-10.7-4.9-9.8-9.3C759,532.4,761.9,534.6,768,535.7z"/>
<path class="st2" d="M113.3,603.1c0,0,8.4,11-3.9,27.5s-22.4,30.5-18.3,40.8c0,0,18.5-30.7,33.5-31.2S129.9,621.6,113.3,603.1z"/>
<path class="st12" d="M113.3,603.1c0.7,1.1,1.3,2.2,1.7,3.4c14.7,17.2,22.5,33.3,8.4,33.7c-13.1,0.4-28.9,23.9-32.7,29.8
	c0.1,0.5,0.3,0.9,0.4,1.3c0,0,18.5-30.7,33.5-31.2S129.9,621.6,113.3,603.1z"/>
<path class="st21" d="M128.9,617.1c0,3.9-0.4,7-1,7s-1-3.1-1-7s0.5-2,1.1-2S128.9,613.3,128.9,617.1z"/>
<path class="st21" d="M134.2,621.7c-3.4,1.8-6.3,3-6.6,2.5s2.3-2.3,5.7-4.2s2.1-0.5,2.3,0S137.6,619.9,134.2,621.7z"/>
<path class="st2" d="M69.1,603.1c0,0-8.4,11,3.9,27.5s22.4,30.5,18.3,40.8c0,0-18.5-30.7-33.5-31.2S52.5,621.6,69.1,603.1z"/>
<path class="st12" d="M69.1,603.1c-0.7,1.1-1.3,2.2-1.7,3.4c-14.7,17.2-22.5,33.3-8.4,33.7c13.1,0.4,28.9,23.9,32.7,29.8
	c-0.1,0.5-0.3,0.9-0.4,1.3c0,0-18.5-30.7-33.5-31.2S52.5,621.6,69.1,603.1z"/>
<path class="st21" d="M53.5,617.1c0,3.9,0.4,7,1,7s1-3.1,1-7s-0.5-2-1.1-2S53.5,613.3,53.5,617.1z"/>
<path class="st21" d="M48.1,621.7c3.4,1.8,6.3,3,6.6,2.5s-2.3-2.3-5.7-4.2s-2.1-0.5-2.3,0S44.7,619.9,48.1,621.7z"/>
<path class="st19" d="M56.1,670c0,0,23.4-0.7,30.5-5.8s36-11,37.8-3s35.2,40.1,8.8,40.3s-61.5-4.1-68.5-8.4S56.1,670,56.1,670z"/>
<path class="st20" d="M133.7,698.8c-26.4,0.2-61.5-4.1-68.5-8.4c-5.4-3.3-7.5-15-8.2-20.4h-0.8c0,0,1.5,18.9,8.5,23.2
	s42.1,8.6,68.5,8.4c7.6-0.1,10.3-2.8,10.1-6.8C142.2,697.3,139.3,698.8,133.7,698.8z"/>
</svg>
